<svg aria-hidden="true" style="position:absolute;width:0;height:0;overflow:hidden"
    xmlns="http://www.w3.org/2000/svg">
    <defs>
        <symbol id="icon-Component-4-4" viewBox="0 0 32 32">
            <path fill="none" stroke="#47464b" style="stroke:var(--color1, #47464b)"
                stroke-width="1.333" d="M11.333 17.333h9.333a2 2 0 1 1 0 4h-9.333a2 2 0 1 1 0-4z" />
            <path fill="none" stroke="#47464b" style="stroke:var(--color1, #47464b)"
                stroke-width=".667"
                d="M6 15h1.333a.333.333 0 1 1 0 .666H6A.333.333 0 1 1 6 15zM24.667 15H26a.333.333 0 1 1 0 .666h-1.333a.333.333 0 1 1 0-.666z" />
            <path fill="none" stroke="#47464b" style="stroke:var(--color1, #47464b)"
                stroke-linejoin="round" stroke-width="1.333"
                d="M10.375 5.003a2.667 2.667 0 0 1 2.646-2.336h5.958a2.666 2.666 0 0 1 2.646 2.336l.854 6.832a1.334 1.334 0 0 1-1.323 1.499H10.843a1.334 1.334 0 0 1-1.323-1.499l.854-6.832z" />
            <path fill="none" stroke="#47464b" style="stroke:var(--color1, #47464b)"
                stroke-linejoin="round" stroke-linecap="round" stroke-width="1.333"
                d="M16 22v7.333M10.667 29.333c.444-1.333 2.133-4 5.333-4s4.889 2.667 5.333 4M16 16.667V14M23.333 19.333H24c.736 0 1.333-.597 1.333-1.333v-2M8.667 19.333H8A1.333 1.333 0 0 1 6.667 18v-2" />
        </symbol>
        <symbol id="icon-Component-4-10" viewBox="0 0 32 32">
            <path fill="none" stroke="#47464b" style="stroke:var(--color1, #47464b)"
                stroke-linejoin="round" stroke-width="1.333"
                d="M2.667 24h26.667v2.667H2.667V24zM2.667 18.667c0-.736.597-1.333 1.333-1.333h24c.736 0 1.333.597 1.333 1.333V24H2.666v-5.333zM22.667 12v4c0 .736-.597 1.333-1.333 1.333H10.667A1.333 1.333 0 0 1 9.334 16v-4c0-.736.597-1.333 1.333-1.333h10.667c.736 0 1.333.597 1.333 1.333z" />
            <path fill="none" stroke="#47464b" style="stroke:var(--color1, #47464b)"
                stroke-linejoin="round" stroke-width="1.333"
                d="M26.667 5.333c.736 0 1.333.597 1.333 1.333v10.667H4V6.666c0-.736.597-1.333 1.333-1.333h21.333zM25.333 26.667H28v2.667h-1.333l-1.333-2.667zM4 26.667h2.667l-1.333 2.667H4.001v-2.667z" />
        </symbol>
        <symbol id="icon-Component-4-7" viewBox="0 0 32 32">
            <path fill="none" stroke="#47464b" style="stroke:var(--color1, #47464b)"
                stroke-linejoin="round" stroke-width="1.333"
                d="M2.667 24h26.667v2.667H2.667V24zM2.667 18.667c0-.736.597-1.333 1.333-1.333h24c.736 0 1.333.597 1.333 1.333V24H2.666v-5.333zM14.667 13.333V16c0 .736-.597 1.333-1.333 1.333H8.001A1.333 1.333 0 0 1 6.668 16v-2.667c0-.736.597-1.333 1.333-1.333h5.333c.736 0 1.333.597 1.333 1.333zM25.333 13.333V16c0 .736-.597 1.333-1.333 1.333h-5.333A1.333 1.333 0 0 1 17.334 16v-2.667c0-.736.597-1.333 1.333-1.333H24c.736 0 1.333.597 1.333 1.333z" />
            <path fill="none" stroke="#47464b" style="stroke:var(--color1, #47464b)"
                stroke-linejoin="round" stroke-width="1.333"
                d="M26.667 6.667C27.403 6.667 28 7.264 28 8v9.333H4V8c0-.736.597-1.333 1.333-1.333h21.333zM25.333 26.667H28v2.667h-1.333l-1.333-2.667zM4 26.667h2.667l-1.333 2.667H4.001v-2.667z" />
        </symbol>
        <symbol id="icon-Component-4-6" viewBox="0 0 32 32">
            <path fill="none" stroke="#47464b" style="stroke:var(--color1, #47464b)"
                stroke-width="1.333"
                d="M8 17.818a.62.62 0 0 1 .47-.602 31.042 31.042 0 0 1 15.059 0 .62.62 0 0 1 .47.602V20c0 .736-.597 1.333-1.333 1.333H9.333A1.333 1.333 0 0 1 8 20v-2.182zM26.667 13.467V6.213a2.667 2.667 0 0 0-2.175-2.621l-1.12-.21a40.02 40.02 0 0 0-14.743 0l-1.12.21a2.667 2.667 0 0 0-2.175 2.621v7.254" />
            <path fill="none" stroke="#47464b" style="stroke:var(--color1, #47464b)"
                stroke-linejoin="round" stroke-width="1.333"
                d="M4 26.667h2.667v2.667H5.334l-1.333-2.667zM25.333 26.667H28l-1.333 2.667h-1.333v-2.667zM4 26.667h24M4 26.667h24c.736 0 1.333-.597 1.333-1.333v-9.333a2.667 2.667 0 1 0-5.334 0v4c0 .736-.597 1.333-1.333 1.333H9.333A1.333 1.333 0 0 1 8 20.001v-4a2.667 2.667 0 1 0-5.334 0v9.333c0 .736.597 1.333 1.333 1.333z" />
        </symbol>
        <symbol id="icon-Component-4-5" viewBox="0 0 32 32">
            <path fill="none" stroke="#47464b" style="stroke:var(--color1, #47464b)"
                stroke-linejoin="round" stroke-width="1.333"
                d="M5.333 2.667h21.333V28H5.333V2.667zM16 2.667V28" />
            <path fill="none" stroke="#47464b" style="stroke:var(--color1, #47464b)"
                stroke-width="1.333"
                d="M20 16.667a.667.667 0 1 1-1.334 0 .667.667 0 0 1 1.334 0zM13.333 16.667a.667.667 0 1 1-1.334 0 .667.667 0 0 1 1.334 0z" />
            <path fill="none" stroke="#47464b" style="stroke:var(--color1, #47464b)"
                stroke-linejoin="round" stroke-linecap="round" stroke-width="1.333"
                d="M24 29.333V28M9.333 29.333V28" />
        </symbol>
        <symbol id="icon-Component-4-9" viewBox="0 0 32 32">
            <path fill="none" stroke="#47464b" style="stroke:var(--color1, #47464b)"
                stroke-linejoin="round" stroke-width="1.333"
                d="M2.667 16h26.667v10.667H2.667V16zM18.667 12h8v4h-8v-4zM6.667 13.333H12V16H6.667v-2.667zM16 16v10.667" />
            <path fill="none" stroke="#47464b" style="stroke:var(--color1, #47464b)"
                stroke-linejoin="round" stroke-linecap="round" stroke-width="1.333"
                d="M12 20v2.667M9.333 9.333v4M20 20v2.667" />
            <path fill="none" stroke="#47464b" style="stroke:var(--color1, #47464b)"
                stroke-linejoin="round" stroke-width="1.333"
                d="M25.333 26.667H28v2.667h-1.333l-1.333-2.667zM4 26.667h2.667l-1.333 2.667H4.001v-2.667zM12.533 4h-6.4l-.8 5.333h8L12.533 4z" />
        </symbol>
        <symbol id="icon-Component-4-3" viewBox="0 0 32 32">
            <path fill="none" stroke="#47464b" style="stroke:var(--color1, #47464b)"
                stroke-linejoin="round" stroke-width="1.333"
                d="M5.333 13.333h21.333v13.333H5.333V13.333zM26.667 20H5.334" />
            <path fill="none" stroke="#47464b" style="stroke:var(--color1, #47464b)"
                stroke-linejoin="round" stroke-linecap="round" stroke-width="1.333"
                d="M18.667 16h-5.333M18.667 22.667h-5.333" />
            <path fill="none" stroke="#47464b" style="stroke:var(--color1, #47464b)"
                stroke-linejoin="round" stroke-width="1.333"
                d="M22.667 26.667h2.667v2.667h-1.333l-1.333-2.667zM6.667 26.667h2.667l-1.333 2.667H6.668v-2.667z" />
            <path fill="none" stroke="#47464b" style="stroke:var(--color1, #47464b)"
                stroke-width="1.333"
                d="M13.333 10.667a2.667 2.667 0 1 1-5.334 0 2.667 2.667 0 0 1 5.334 0z" />
            <path fill="none" stroke="#47464b" style="stroke:var(--color1, #47464b)"
                stroke-linejoin="round" stroke-width="1.333"
                d="M8 2.667h5.333L14.666 8h-8l1.333-5.333z" />
        </symbol>
        <symbol id="icon-Component-4-2" viewBox="0 0 32 32">
            <path fill="none" stroke="#47464b" style="stroke:var(--color1, #47464b)"
                stroke-linejoin="round" stroke-width="1.333"
                d="M5.333 6.667h21.333v18.667H5.333V6.667zM26.667 16H5.334" />
            <path fill="none" stroke="#47464b" style="stroke:var(--color1, #47464b)"
                stroke-linejoin="round" stroke-linecap="round" stroke-width="1.333"
                d="M18.667 9.333h-5.333M18.667 18.667h-5.333" />
            <path fill="none" stroke="#47464b" style="stroke:var(--color1, #47464b)"
                stroke-linejoin="round" stroke-width="1.333"
                d="M22.667 25.333h2.667v4h-1.333l-1.333-4zM6.667 25.333h2.667l-1.333 4H6.668v-4z" />
        </symbol>
        <symbol id="icon-Component-4-1" viewBox="0 0 32 32">
            <path fill="none" stroke="#47464b" style="stroke:var(--color1, #47464b)"
                stroke-linejoin="round" stroke-width="1.333"
                d="M2.667 16c2.083-.603 3.25-.627 5.333 0v10.667H2.667V16zM24 16c2.083-.543 3.251-.526 5.333 0v10.667H24V16z" />
            <path fill="none" stroke="#47464b" style="stroke:var(--color1, #47464b)"
                stroke-width="1.333"
                d="M8 20h16v6.667H8V20zM5.333 16V8.927c0-1.304.943-2.422 2.233-2.61 6.196-.902 10.5-.9 16.856.007a2.629 2.629 0 0 1 2.245 2.613V16" />
            <path fill="none" stroke="#47464b" style="stroke:var(--color1, #47464b)"
                stroke-linejoin="round" stroke-width="1.333"
                d="M25.333 26.667H28v2.667h-1.333l-1.333-2.667zM6.667 26.667H4v2.667h1.333l1.333-2.667z" />
            <path fill="#47464b" style="fill:var(--color1, #47464b)"
                d="M12 10a.667.667 0 1 1-1.334 0A.667.667 0 0 1 12 10zM12 15.333a.667.667 0 1 1-1.334 0 .667.667 0 0 1 1.334 0zM17.333 10a.667.667 0 1 1-1.334 0 .667.667 0 0 1 1.334 0zM17.333 15.333a.667.667 0 1 1-1.334 0 .667.667 0 0 1 1.334 0zM14.667 12.667a.667.667 0 1 1-1.334 0 .667.667 0 0 1 1.334 0zM22.667 10a.667.667 0 1 1-1.334 0 .667.667 0 0 1 1.334 0zM22.667 15.333a.667.667 0 1 1-1.334 0 .667.667 0 0 1 1.334 0zM20 12.667a.667.667 0 1 1-1.334 0 .667.667 0 0 1 1.334 0z" />
        </symbol>
        <symbol id="icon-Component-4" viewBox="0 0 32 32">
            <path fill="none" stroke="#47464b" style="stroke:var(--color1, #47464b)"
                stroke-linejoin="round" stroke-width="1.333"
                d="M5.333 14.667h21.333v14.667H5.333V14.667zM16 14.667v14.667" />
            <path fill="none" stroke="#47464b" style="stroke:var(--color1, #47464b)"
                stroke-linejoin="round" stroke-linecap="round" stroke-width="1.333"
                d="M18.667 21.333v1.333M13.333 21.333v1.333" />
            <path fill="none" stroke="#47464b" style="stroke:var(--color1, #47464b)"
                stroke-linejoin="round" stroke-width="1.333"
                d="M16 14.667c4.418 0 8-2.388 8-5.333H8c0 2.946 3.582 5.333 8 5.333z" />
            <path fill="none" stroke="#47464b" style="stroke:var(--color1, #47464b)"
                stroke-linejoin="round" stroke-linecap="round" stroke-width="1.333"
                d="M14.667 8.667V4.334c0-.92.746-1.667 1.667-1.667v0c.921 0 1.667.746 1.667 1.667v.333m-3.334 4L16 7.334m-1.333 1.333-1.333-1.333" />
        </symbol>
        <symbol id="icon-search" viewBox="0 0 32 32">
            <path
                d="m31.008 27.231-7.58-6.447c-.784-.705-1.622-1.029-2.299-.998a11.954 11.954 0 0 0 2.87-7.787c0-6.627-5.373-12-12-12s-12 5.373-12 12 5.373 12 12 12c2.972 0 5.691-1.081 7.787-2.87-.031.677.293 1.515.998 2.299l6.447 7.58c1.104 1.226 2.907 1.33 4.007.23s.997-2.903-.23-4.007zM12 20a8 8 0 1 1 0-16 8 8 0 0 1 0 16z" />
        </symbol>
    </defs>
</svg>