<svg width="100" height="100" viewBox="0 0 100 100" fill="none" xmlns="http://www.w3.org/2000/svg">
<path d="M45.8333 70.8333C45.8333 75.2536 44.0774 79.4928 40.9518 82.6184C37.8262 85.744 33.5869 87.5 29.1667 87.5C24.7464 87.5 20.5072 85.744 17.3816 82.6184C14.2559 79.4928 12.5 75.2536 12.5 70.8333V20.8333C12.5 18.6232 13.378 16.5036 14.9408 14.9408C16.5036 13.378 18.6232 12.5 20.8333 12.5H37.5C39.7101 12.5 41.8298 13.378 43.3926 14.9408C44.9554 16.5036 45.8333 18.6232 45.8333 20.8333V70.8333Z" stroke="#D81C1B" stroke-width="2" stroke-linecap="round" stroke-linejoin="round"/>
<path d="M69.5832 54.1666H79.1665C81.3766 54.1666 83.4963 55.0446 85.0591 56.6074C86.6219 58.1702 87.4998 60.2898 87.4998 62.5V79.1666C87.4998 81.3768 86.6219 83.4964 85.0591 85.0592C83.4963 86.622 81.3766 87.5 79.1665 87.5H29.1665" stroke="#D81C1B" stroke-width="2" stroke-linecap="round" stroke-linejoin="round"/>
<path d="M29.1665 70.8334H29.2082" stroke="#D81C1B" stroke-width="2" stroke-linecap="round" stroke-linejoin="round"/>
<path d="M45.8333 33.3333L55.4167 23.75C56.3471 22.8163 57.4529 22.0758 58.6706 21.571C59.8882 21.0662 61.1937 20.8072 62.5118 20.8087C63.8299 20.8103 65.1347 21.0724 66.3512 21.58C67.5677 22.0877 68.6718 22.8308 69.6 23.7667L77.5 31.6667C78.4608 32.5909 79.2271 33.6979 79.7539 34.9225C80.2807 36.1472 80.5572 37.4649 80.5673 38.798C80.5774 40.1311 80.3208 41.4528 79.8127 42.6853C79.3045 43.9179 78.555 45.0363 77.6083 45.975L41.25 82.5" stroke="#D81C1B" stroke-width="2" stroke-linecap="round" stroke-linejoin="round"/>
</svg>
