<svg width="100" height="100" viewBox="0 0 100 100" fill="none" xmlns="http://www.w3.org/2000/svg">
<path d="M83.3335 25H16.6668C12.0645 25 8.3335 28.731 8.3335 33.3333V66.6667C8.3335 71.269 12.0645 75 16.6668 75H83.3335C87.9359 75 91.6668 71.269 91.6668 66.6667V33.3333C91.6668 28.731 87.9359 25 83.3335 25Z" stroke="#D81C1B" stroke-width="2" stroke-linecap="round" stroke-linejoin="round"/>
<path d="M49.9998 58.3333C54.6022 58.3333 58.3332 54.6023 58.3332 50C58.3332 45.3976 54.6022 41.6666 49.9998 41.6666C45.3975 41.6666 41.6665 45.3976 41.6665 50C41.6665 54.6023 45.3975 58.3333 49.9998 58.3333Z" stroke="#D81C1B" stroke-width="2" stroke-linecap="round" stroke-linejoin="round"/>
<path d="M25 50H25.0417M75 50H75.0417" stroke="#D81C1B" stroke-width="2" stroke-linecap="round" stroke-linejoin="round"/>
</svg>
