<svg width="100" height="100" viewBox="0 0 100 100" fill="none" xmlns="http://www.w3.org/2000/svg">
<path d="M83.3332 54.1666C83.3332 75 68.7498 85.4166 51.4165 91.4583C50.5089 91.7659 49.5229 91.7512 48.6248 91.4166C31.2498 85.4166 16.6665 75 16.6665 54.1666V25C16.6665 23.8949 17.1055 22.8351 17.8869 22.0537C18.6683 21.2723 19.7281 20.8333 20.8332 20.8333C29.1665 20.8333 39.5832 15.8333 46.8332 9.49996C47.7159 8.74579 48.8388 8.33142 49.9998 8.33142C51.1609 8.33142 52.2838 8.74579 53.1665 9.49996C60.4582 15.875 70.8332 20.8333 79.1665 20.8333C80.2716 20.8333 81.3314 21.2723 82.1128 22.0537C82.8942 22.8351 83.3332 23.8949 83.3332 25V54.1666Z" stroke="#D81C1B" stroke-width="2" stroke-linecap="round" stroke-linejoin="round"/>
<path d="M37.5 50L45.8333 58.3333L62.5 41.6666" stroke="#D81C1B" stroke-width="2" stroke-linecap="round" stroke-linejoin="round"/>
</svg>
