<svg width="100" height="100" viewBox="0 0 100 100" fill="none" xmlns="http://www.w3.org/2000/svg">
<path d="M45.8333 58.3333H54.1667C56.3768 58.3333 58.4964 57.4553 60.0592 55.8925C61.622 54.3297 62.5 52.2101 62.5 50C62.5 47.7898 61.622 45.6702 60.0592 44.1074C58.4964 42.5446 56.3768 41.6666 54.1667 41.6666H41.6667C39.1667 41.6666 37.0833 42.5 35.8333 44.1666L12.5 66.6666" stroke="#D81C1B" stroke-width="2" stroke-linecap="round" stroke-linejoin="round"/>
<path d="M29.1665 83.3333L35.8332 77.5C37.0832 75.8333 39.1665 75 41.6665 75H58.3332C62.9165 75 67.0832 73.3333 69.9998 70L89.1665 51.6666C90.7744 50.1472 91.7128 48.0512 91.7753 45.8398C91.8378 43.6285 91.0193 41.4828 89.4998 39.875C87.9804 38.2671 85.8844 37.3287 83.673 37.2662C81.4617 37.2036 79.316 38.0221 77.7082 39.5416L60.2082 55.7916" stroke="#D81C1B" stroke-width="2" stroke-linecap="round" stroke-linejoin="round"/>
<path d="M8.3335 62.5L33.3335 87.5" stroke="#D81C1B" stroke-width="2" stroke-linecap="round" stroke-linejoin="round"/>
<path d="M81.2498 35.4167C84.1665 32.5 87.4998 28.75 87.4998 24.1667C87.791 21.6205 87.2139 19.0507 85.862 16.8735C84.5101 14.6963 82.4627 13.0395 80.0514 12.1714C77.6402 11.3034 75.0064 11.275 72.5771 12.0909C70.1477 12.9068 68.065 14.5191 66.6665 16.6667C65.1791 14.6858 63.0958 13.2339 60.7225 12.5241C58.3492 11.8143 55.8109 11.8841 53.4801 12.7232C51.1494 13.5622 49.1491 15.1264 47.7727 17.186C46.3964 19.2456 45.7166 21.6923 45.8331 24.1667C45.8331 29.1667 49.1665 32.5 52.0831 35.8333L66.6665 50L81.2498 35.4167Z" stroke="#D81C1B" stroke-width="2" stroke-linecap="round" stroke-linejoin="round"/>
</svg>
