<svg width="100" height="100" viewBox="0 0 100 100" fill="none" xmlns="http://www.w3.org/2000/svg">
<path d="M36.6668 83.3333V66.25L44.5835 67.0833C46.8882 66.9553 49.0693 65.9996 50.7258 64.3921C52.3824 62.7846 53.403 60.6332 53.6002 58.3333V34.5833C53.6278 28.5806 51.2697 22.8127 47.0447 18.5486C42.8196 14.2845 37.0737 11.8734 31.071 11.8458C25.0683 11.8182 19.3004 14.1763 15.0363 18.4013C10.7722 22.6264 8.36112 28.3723 8.3335 34.375C8.3335 46.0417 11.0668 47.1 12.5002 53.3333C13.4688 57.0978 13.5103 61.041 12.621 64.825L8.3335 83.3333" stroke="#D81C1B" stroke-width="2" stroke-linecap="round" stroke-linejoin="round"/>
<path d="M82.5 74.1667C88.3576 68.3085 91.6493 60.3641 91.6517 52.0797C91.654 43.7954 88.3668 35.8491 82.5125 29.9875" stroke="#D81C1B" stroke-width="2" stroke-linecap="round" stroke-linejoin="round"/>
<path d="M70.8332 62.5C72.1964 61.1371 73.2759 59.5174 74.0092 57.7346C74.7425 55.9519 75.1151 54.0414 75.1054 52.1137C75.0957 50.1861 74.7039 48.2794 73.9528 46.5041C73.2016 44.7288 72.1059 43.1201 70.729 41.7709" stroke="#D81C1B" stroke-width="2" stroke-linecap="round" stroke-linejoin="round"/>
</svg>
